<svg width="1000" height="1001" viewBox="0 0 1000 1001" fill="none" xmlns="http://www.w3.org/2000/svg">
<rect x="385.37" y="615.732" width="165" height="400" rx="7" transform="rotate(-150 385.37 615.732)" fill="#696969"/>
<path d="M345.147 685.378C342.453 690.044 335.717 690.044 333.023 685.378L246.853 536.128C244.159 531.461 247.527 525.628 252.916 525.628H425.255C430.643 525.628 434.011 531.461 431.317 536.128L345.147 685.378Z" fill="#696969"/>
<rect x="266.319" y="151.225" width="619.416" height="120" rx="7" fill="#696969"/>
<rect x="378.463" y="602.151" width="140.5" height="400" rx="5" transform="rotate(-150 378.463 602.151)" fill="#696969"/>
<rect x="526.506" y="839.252" width="130" height="562.851" rx="7" transform="rotate(-150 526.506 839.252)" fill="#696969"/>
<rect x="497.692" y="739.252" width="290.241" height="100" rx="7" fill="#696969"/>
<path d="M459.514 694.703C462.209 690.036 468.944 690.036 471.639 694.703L549.131 828.924C551.825 833.591 548.458 839.424 543.069 839.424H388.084C382.695 839.424 379.328 833.591 382.022 828.924L459.514 694.703Z" fill="#696969"/>
<path d="M439.92 758.931C441.845 755.597 446.656 755.597 448.58 758.931L481.056 815.181C482.981 818.514 480.575 822.681 476.726 822.681H411.774C407.925 822.681 405.52 818.514 407.444 815.181L439.92 758.931Z" fill="#696969"/>
<path d="M343.318 663.31C341.394 666.643 336.583 666.643 334.658 663.31L259.314 532.81C257.389 529.476 259.795 525.31 263.644 525.31H414.332C418.181 525.31 420.587 529.476 418.663 532.81L343.318 663.31Z" fill="#696969"/>
<path d="M884.935 267.708C882.241 272.374 875.505 272.374 872.811 267.708L811.648 161.771C808.954 157.104 812.322 151.271 817.711 151.271H940.036C945.424 151.271 948.792 157.104 946.098 161.771L884.935 267.708Z" fill="#696969"/>
<path d="M189.304 267.708C186.61 272.374 179.874 272.374 177.18 267.708L116.017 161.771C113.323 157.104 116.691 151.271 122.079 151.271H244.405C249.793 151.271 253.161 157.104 250.467 161.771L189.304 267.708Z" fill="#696969"/>
<path d="M115.065 154.818C117.759 150.152 124.495 150.152 127.189 154.818L188.352 260.755C191.046 265.422 187.678 271.255 182.29 271.255H59.9643C54.5757 271.255 51.2079 265.422 53.9022 260.755L115.065 154.818Z" fill="#696969"/>
<path d="M266.268 154.818C268.963 150.152 275.698 150.152 278.393 154.818L339.555 260.755C342.249 265.422 338.882 271.255 333.493 271.255H211.168C205.779 271.255 202.411 265.422 205.106 260.755L266.268 154.818Z" fill="#696969"/>
<path d="M878.776 258.565C876.851 261.898 872.04 261.898 870.116 258.565L818.235 168.706C816.311 165.373 818.717 161.206 822.566 161.206H926.326C930.175 161.206 932.581 165.373 930.656 168.706L878.776 258.565Z" fill="#696969"/>
<path d="M184.972 258.565C183.048 261.898 178.237 261.898 176.312 258.565L124.432 168.706C122.507 165.373 124.913 161.206 128.762 161.206H232.523C236.372 161.206 238.777 165.373 236.853 168.706L184.972 258.565Z" fill="#696969"/>
<path d="M122.835 163.866C124.76 160.532 129.571 160.532 131.496 163.866L183.376 253.725C185.3 257.058 182.895 261.225 179.046 261.225H75.2852C71.4362 261.225 69.0306 257.058 70.9551 253.725L122.835 163.866Z" fill="#696969"/>
<path d="M271.202 163.781C273.127 160.448 277.938 160.448 279.863 163.781L331.743 253.64C333.667 256.974 331.262 261.14 327.413 261.14H223.652C219.803 261.14 217.398 256.974 219.322 253.64L271.202 163.781Z" fill="#696969"/>
<path d="M771.224 415.125C768.53 419.791 761.794 419.791 759.1 415.125L692.416 299.625C689.722 294.958 693.09 289.125 698.478 289.125H831.846C837.235 289.125 840.603 294.958 837.908 299.625L771.224 415.125Z" fill="#696969"/>
<path d="M762.961 399.491C761.037 402.824 756.225 402.824 754.301 399.491L702.294 309.412C700.369 306.079 702.775 301.912 706.624 301.912H810.638C814.487 301.912 816.892 306.079 814.968 309.412L762.961 399.491Z" fill="#696969"/>
<rect x="520.208" y="819.876" width="100" height="541.411" rx="5" transform="rotate(-150 520.208 819.876)" fill="#696969"/>
<rect x="271.155" y="161.225" width="607.784" height="100" rx="5" fill="#696969"/>
<path d="M775.089 742.706C777.784 738.039 784.519 738.039 787.214 742.706L836.81 828.608C839.504 833.275 836.136 839.108 830.748 839.108H731.556C726.167 839.108 722.799 833.275 725.493 828.608L775.089 742.706Z" fill="#696969"/>
<path d="M856.486 808.438C853.792 813.105 847.056 813.105 844.362 808.438L794.766 722.536C792.071 717.869 795.439 712.036 800.828 712.036H900.02C905.408 712.036 908.776 717.869 906.082 722.536L856.486 808.438Z" fill="#696969"/>
<path d="M769.957 755.17C771.881 751.836 776.692 751.836 778.617 755.17L813.277 815.203C815.202 818.537 812.796 822.703 808.947 822.703H739.627C735.778 822.703 733.372 818.537 735.296 815.203L769.957 755.17Z" fill="#696969"/>
<path d="M854.754 790.192C852.829 793.525 848.018 793.525 846.094 790.192L811.433 730.159C809.509 726.825 811.914 722.659 815.763 722.659H885.084C888.933 722.659 891.339 726.825 889.414 730.159L854.754 790.192Z" fill="#696969"/>
<rect x="443.691" y="752.684" width="335.465" height="70" rx="5" fill="#696969"/>
<path d="M231.697 548.788C234.391 544.122 241.127 544.122 243.821 548.788L274.998 602.788C277.693 607.455 274.325 613.288 268.936 613.288H206.582C201.194 613.288 197.826 607.455 200.52 602.788L231.697 548.788Z" fill="#696969"/>
<path d="M233.429 555.788C235.354 552.455 240.165 552.455 242.089 555.788L268.07 600.788C269.995 604.122 267.589 608.288 263.74 608.288H211.779C207.93 608.288 205.524 604.122 207.448 600.788L233.429 555.788Z" fill="#696969"/>
<path d="M161.938 783.562C164.632 778.895 171.368 778.895 174.062 783.562L186.187 804.562C188.881 809.228 185.513 815.062 180.124 815.062H155.876C150.487 815.062 147.119 809.228 149.813 804.562L161.938 783.562Z" fill="#696969"/>
<path d="M872.938 672.562C875.632 667.895 882.368 667.895 885.062 672.562L897.187 693.562C899.881 698.228 896.513 704.062 891.124 704.062H866.876C861.487 704.062 858.119 698.228 860.813 693.562L872.938 672.562Z" fill="#696969"/>
<path d="M102.938 783.562C105.632 778.895 112.368 778.895 115.062 783.562L127.187 804.562C129.881 809.228 126.513 815.062 121.124 815.062H96.8756C91.487 815.062 88.1192 809.228 90.8135 804.562L102.938 783.562Z" fill="#696969"/>
<path d="M813.938 672.562C816.632 667.895 823.368 667.895 826.062 672.562L838.187 693.562C840.881 698.228 837.513 704.062 832.124 704.062H807.876C802.487 704.062 799.119 698.228 801.813 693.562L813.938 672.562Z" fill="#696969"/>
<path d="M144.062 796.562C141.368 801.228 134.632 801.228 131.938 796.562L119.813 775.562C117.119 770.895 120.487 765.062 125.876 765.062H150.124C155.513 765.062 158.881 770.895 156.187 775.562L144.062 796.562Z" fill="#696969"/>
<path d="M855.062 685.562C852.368 690.228 845.632 690.228 842.938 685.562L830.813 664.562C828.119 659.895 831.487 654.062 836.876 654.062H861.124C866.513 654.062 869.881 659.895 867.187 664.562L855.062 685.562Z" fill="#696969"/>
<path d="M913.062 685.562C910.368 690.228 903.632 690.228 900.938 685.562L888.813 664.562C886.119 659.895 889.487 654.062 894.876 654.062H919.124C924.513 654.062 927.881 659.895 925.187 664.562L913.062 685.562Z" fill="#696969"/>
<path d="M130.938 727.562C133.632 722.895 140.368 722.895 143.062 727.562L155.187 748.562C157.881 753.228 154.513 759.062 149.124 759.062H124.876C119.487 759.062 116.119 753.228 118.813 748.562L130.938 727.562Z" fill="#696969"/>
<path d="M163.67 788.562C165.594 785.228 170.406 785.228 172.33 788.562L180.99 803.562C182.915 806.895 180.509 811.062 176.66 811.062H159.34C155.491 811.062 153.085 806.895 155.01 803.562L163.67 788.562Z" fill="#696969"/>
<path d="M874.67 677.562C876.594 674.228 881.406 674.228 883.33 677.562L891.99 692.562C893.915 695.895 891.509 700.062 887.66 700.062H870.34C866.491 700.062 864.085 695.895 866.01 692.562L874.67 677.562Z" fill="#696969"/>
<path d="M104.67 788.562C106.594 785.228 111.406 785.228 113.33 788.562L121.99 803.562C123.915 806.895 121.509 811.062 117.66 811.062H100.34C96.4908 811.062 94.0851 806.895 96.0096 803.562L104.67 788.562Z" fill="#696969"/>
<path d="M815.67 677.562C817.594 674.228 822.406 674.228 824.33 677.562L832.99 692.562C834.915 695.895 832.509 700.062 828.66 700.062H811.34C807.491 700.062 805.085 695.895 807.01 692.562L815.67 677.562Z" fill="#696969"/>
<path d="M142.33 791.562C140.406 794.895 135.594 794.895 133.67 791.562L125.01 776.562C123.085 773.228 125.491 769.062 129.34 769.062H146.66C150.509 769.062 152.915 773.228 150.99 776.562L142.33 791.562Z" fill="#696969"/>
<path d="M853.33 680.562C851.406 683.895 846.594 683.895 844.67 680.562L836.01 665.562C834.085 662.228 836.491 658.062 840.34 658.062H857.66C861.509 658.062 863.915 662.228 861.99 665.562L853.33 680.562Z" fill="#696969"/>
<path d="M911.33 680.562C909.406 683.895 904.594 683.895 902.67 680.562L894.01 665.562C892.085 662.228 894.491 658.062 898.34 658.062H915.66C919.509 658.062 921.915 662.228 919.99 665.562L911.33 680.562Z" fill="#696969"/>
<path d="M132.67 732.562C134.594 729.228 139.406 729.228 141.33 732.562L149.99 747.562C151.915 750.895 149.509 755.062 145.66 755.062H128.34C124.491 755.062 122.085 750.895 124.01 747.562L132.67 732.562Z" fill="#696969"/>
<path d="M181.938 638.562C184.632 633.895 191.368 633.895 194.062 638.562L225.239 692.562C227.933 697.228 224.566 703.062 219.177 703.062H156.823C151.434 703.062 148.067 697.228 150.761 692.562L181.938 638.562Z" fill="#696969"/>
<path d="M282.938 638.562C285.632 633.895 292.368 633.895 295.062 638.562L326.239 692.562C328.933 697.228 325.566 703.062 320.177 703.062H257.823C252.434 703.062 249.067 697.228 251.761 692.562L282.938 638.562Z" fill="#696969"/>
<path d="M295.062 778.562C292.368 783.228 285.632 783.228 282.938 778.562L251.761 724.562C249.067 719.895 252.434 714.062 257.823 714.062H320.177C325.566 714.062 328.933 719.895 326.239 724.562L295.062 778.562Z" fill="#696969"/>
<path d="M194.062 778.562C191.368 783.228 184.632 783.228 181.938 778.562L150.761 724.562C148.067 719.895 151.434 714.062 156.823 714.062H219.177C224.566 714.062 227.933 719.895 225.239 724.562L194.062 778.562Z" fill="#696969"/>
<path d="M232.938 733.562C235.632 728.895 242.368 728.895 245.062 733.562L276.239 787.562C278.933 792.228 275.566 798.062 270.177 798.062H207.823C202.434 798.062 199.067 792.228 201.761 787.562L232.938 733.562Z" fill="#696969"/>
<path d="M244.062 685.562C241.368 690.228 234.632 690.228 231.938 685.562L200.761 631.562C198.067 626.895 201.434 621.062 206.823 621.062H269.177C274.566 621.062 277.933 626.895 275.239 631.562L244.062 685.562Z" fill="#696969"/>
<path d="M183.67 645.562C185.594 642.228 190.406 642.228 192.33 645.562L218.311 690.562C220.235 693.895 217.83 698.062 213.981 698.062H162.019C158.17 698.062 155.765 693.895 157.689 690.562L183.67 645.562Z" fill="#696969"/>
<path d="M284.67 645.562C286.594 642.228 291.406 642.228 293.33 645.562L319.311 690.562C321.235 693.895 318.83 698.062 314.981 698.062H263.019C259.17 698.062 256.765 693.895 258.689 690.562L284.67 645.562Z" fill="#696969"/>
<path d="M293.33 771.562C291.406 774.895 286.594 774.895 284.67 771.562L258.689 726.562C256.765 723.228 259.17 719.062 263.019 719.062H314.981C318.83 719.062 321.235 723.228 319.311 726.562L293.33 771.562Z" fill="#696969"/>
<path d="M192.33 771.562C190.406 774.895 185.594 774.895 183.67 771.562L157.689 726.562C155.765 723.228 158.17 719.062 162.019 719.062H213.981C217.83 719.062 220.235 723.228 218.311 726.562L192.33 771.562Z" fill="#696969"/>
<path d="M234.67 740.562C236.594 737.228 241.406 737.228 243.33 740.562L269.311 785.562C271.235 788.895 268.83 793.062 264.981 793.062H213.019C209.17 793.062 206.765 788.895 208.689 785.562L234.67 740.562Z" fill="#696969"/>
<path d="M242.33 678.562C240.406 681.895 235.594 681.895 233.67 678.562L207.689 633.562C205.765 630.228 208.17 626.062 212.019 626.062H263.981C267.83 626.062 270.235 630.228 268.311 633.562L242.33 678.562Z" fill="#696969"/>
</svg>
