<svg width="1000" height="1001" viewBox="0 0 1000 1001" fill="none" xmlns="http://www.w3.org/2000/svg">
<rect x="385.37" y="593.67" width="165" height="400" rx="7" transform="rotate(-150 385.37 593.67)" fill="#E7E7E7"/>
<path d="M345.147 663.316C342.453 667.983 335.717 667.983 333.023 663.316L246.853 514.066C244.159 509.4 247.527 503.566 252.916 503.566H425.255C430.643 503.566 434.011 509.4 431.317 514.066L345.147 663.316Z" fill="#E7E7E7"/>
<rect x="115.012" y="129.164" width="770.723" height="120" rx="7" fill="#E7E7E7"/>
<rect x="378.463" y="580.09" width="140.5" height="400" rx="5" transform="rotate(-150 378.463 580.09)" fill="#00DEDE"/>
<rect x="493.41" y="895.857" width="130" height="562.851" rx="7" transform="rotate(-150 493.41 895.857)" fill="#E7E7E7"/>
<rect x="464.596" y="795.857" width="290.241" height="100" rx="7" fill="#E7E7E7"/>
<path d="M426.418 751.309C429.113 746.642 435.848 746.642 438.543 751.309L516.035 885.529C518.729 890.196 515.362 896.029 509.973 896.029H354.988C349.6 896.029 346.232 890.196 348.926 885.529L426.418 751.309Z" fill="#E7E7E7"/>
<path d="M406.824 815.536C408.749 812.203 413.56 812.203 415.484 815.536L447.96 871.786C449.885 875.12 447.479 879.286 443.63 879.286H378.678C374.829 879.286 372.424 875.12 374.348 871.786L406.824 815.536Z" fill="#00DEDE"/>
<path d="M343.318 641.248C341.394 644.581 336.583 644.581 334.658 641.248L259.314 510.748C257.389 507.415 259.795 503.248 263.644 503.248H414.332C418.181 503.248 420.587 507.415 418.663 510.748L343.318 641.248Z" fill="#00DEDE"/>
<path d="M884.935 245.646C882.241 250.313 875.505 250.313 872.811 245.646L811.648 139.709C808.954 135.043 812.322 129.209 817.711 129.209H940.036C945.424 129.209 948.792 135.043 946.098 139.709L884.935 245.646Z" fill="#E7E7E7"/>
<path d="M115.065 132.822C117.759 128.155 124.495 128.155 127.189 132.822L188.352 238.758C191.046 243.425 187.678 249.258 182.29 249.258H59.9643C54.5757 249.258 51.2079 243.425 53.9022 238.758L115.065 132.822Z" fill="#E7E7E7"/>
<path d="M878.776 236.504C876.851 239.837 872.04 239.837 870.116 236.504L818.235 146.644C816.311 143.311 818.717 139.144 822.566 139.144H926.326C930.175 139.144 932.581 143.311 930.656 146.644L878.776 236.504Z" fill="#00DEDE"/>
<path d="M119.999 141.785C121.923 138.451 126.735 138.451 128.659 141.785L180.539 231.644C182.464 234.977 180.058 239.144 176.209 239.144H72.4487C68.5997 239.144 66.1941 234.977 68.1186 231.644L119.999 141.785Z" fill="#00DEDE"/>
<path d="M738.129 471.73C735.434 476.397 728.699 476.397 726.004 471.73L659.32 356.23C656.626 351.564 659.994 345.73 665.382 345.73H798.75C804.139 345.73 807.507 351.564 804.813 356.23L738.129 471.73Z" fill="#E7E7E7"/>
<path d="M729.865 456.096C727.941 459.429 723.129 459.429 721.205 456.096L669.198 366.018C667.274 362.684 669.679 358.518 673.528 358.518H777.542C781.391 358.518 783.797 362.684 781.872 366.018L729.865 456.096Z" fill="#00DEDE"/>
<rect x="487.112" y="876.481" width="100" height="541.411" rx="5" transform="rotate(-150 487.112 876.481)" fill="#00DEDE"/>
<rect x="120.052" y="139.164" width="758.887" height="100" rx="5" fill="#00DEDE"/>
<path d="M741.993 799.311C744.688 794.644 751.423 794.644 754.118 799.311L803.714 885.214C806.408 889.88 803.04 895.714 797.652 895.714H698.46C693.071 895.714 689.703 889.88 692.397 885.214L741.993 799.311Z" fill="#E7E7E7"/>
<path d="M823.39 865.044C820.696 869.711 813.96 869.711 811.266 865.044L761.67 779.141C758.975 774.475 762.343 768.641 767.732 768.641H866.924C872.313 768.641 875.68 774.475 872.986 779.141L823.39 865.044Z" fill="#E7E7E7"/>
<path d="M736.861 811.775C738.785 808.442 743.597 808.442 745.521 811.775L780.181 871.809C782.106 875.142 779.7 879.309 775.851 879.309H706.531C702.682 879.309 700.276 875.142 702.201 871.809L736.861 811.775Z" fill="#00DEDE"/>
<path d="M821.658 846.798C819.733 850.131 814.922 850.131 812.998 846.798L778.337 786.764C776.413 783.431 778.818 779.264 782.667 779.264H851.988C855.837 779.264 858.243 783.431 856.318 786.764L821.658 846.798Z" fill="#00DEDE"/>
<rect x="410.595" y="809.289" width="335.465" height="70" rx="5" fill="#00DEDE"/>
<path d="M231.697 526.727C234.392 522.06 241.127 522.06 243.822 526.727L274.999 580.727C277.693 585.393 274.325 591.227 268.936 591.227H206.583C201.194 591.227 197.826 585.393 200.52 580.727L231.697 526.727Z" fill="#E7E7E7"/>
<path d="M233.429 533.727C235.354 530.393 240.165 530.393 242.09 533.727L268.07 578.727C269.995 582.06 267.589 586.227 263.74 586.227H211.779C207.93 586.227 205.524 582.06 207.449 578.727L233.429 533.727Z" fill="#00DEDE"/>
<path d="M161.938 761.5C164.632 756.833 171.368 756.833 174.062 761.5L186.187 782.5C188.881 787.167 185.513 793 180.124 793H155.876C150.487 793 147.119 787.167 149.813 782.5L161.938 761.5Z" fill="#E7E7E7"/>
<path d="M839.842 729.167C842.536 724.5 849.272 724.5 851.966 729.167L864.091 750.167C866.785 754.834 863.417 760.667 858.028 760.667H833.78C828.391 760.667 825.023 754.834 827.718 750.167L839.842 729.167Z" fill="#E7E7E7"/>
<path d="M102.938 761.5C105.632 756.833 112.368 756.833 115.062 761.5L127.187 782.5C129.881 787.167 126.513 793 121.124 793H96.8756C91.487 793 88.1192 787.167 90.8135 782.5L102.938 761.5Z" fill="#E7E7E7"/>
<path d="M780.842 729.167C783.536 724.5 790.272 724.5 792.966 729.167L805.091 750.167C807.785 754.834 804.417 760.667 799.028 760.667H774.78C769.391 760.667 766.023 754.834 768.718 750.167L780.842 729.167Z" fill="#E7E7E7"/>
<path d="M144.062 774.5C141.368 779.167 134.632 779.167 131.938 774.5L119.813 753.5C117.119 748.833 120.487 743 125.876 743H150.124C155.513 743 158.881 748.833 156.187 753.5L144.062 774.5Z" fill="#E7E7E7"/>
<path d="M821.966 742.167C819.272 746.834 812.536 746.834 809.842 742.167L797.718 721.167C795.023 716.5 798.391 710.667 803.78 710.667H828.028C833.417 710.667 836.785 716.5 834.091 721.167L821.966 742.167Z" fill="#E7E7E7"/>
<path d="M879.966 742.167C877.272 746.834 870.536 746.834 867.842 742.167L855.718 721.167C853.023 716.5 856.391 710.667 861.78 710.667H886.028C891.417 710.667 894.785 716.5 892.091 721.167L879.966 742.167Z" fill="#E7E7E7"/>
<path d="M130.938 705.5C133.632 700.833 140.368 700.833 143.062 705.5L155.187 726.5C157.881 731.167 154.513 737 149.124 737H124.876C119.487 737 116.119 731.167 118.813 726.5L130.938 705.5Z" fill="#E7E7E7"/>
<path d="M163.67 766.5C165.594 763.167 170.406 763.167 172.33 766.5L180.99 781.5C182.915 784.833 180.509 789 176.66 789H159.34C155.491 789 153.085 784.833 155.01 781.5L163.67 766.5Z" fill="#00DEDE"/>
<path d="M841.574 734.167C843.498 730.834 848.31 730.834 850.234 734.167L858.894 749.167C860.819 752.5 858.413 756.667 854.564 756.667H837.244C833.395 756.667 830.989 752.5 832.914 749.167L841.574 734.167Z" fill="#00DEDE"/>
<path d="M104.67 766.5C106.594 763.167 111.406 763.167 113.33 766.5L121.99 781.5C123.915 784.833 121.509 789 117.66 789H100.34C96.4908 789 94.0851 784.833 96.0096 781.5L104.67 766.5Z" fill="#00DEDE"/>
<path d="M782.574 734.167C784.498 730.834 789.31 730.834 791.234 734.167L799.894 749.167C801.819 752.5 799.413 756.667 795.564 756.667H778.244C774.395 756.667 771.989 752.5 773.914 749.167L782.574 734.167Z" fill="#00DEDE"/>
<path d="M142.33 769.5C140.406 772.833 135.594 772.833 133.67 769.5L125.01 754.5C123.085 751.167 125.491 747 129.34 747H146.66C150.509 747 152.915 751.167 150.99 754.5L142.33 769.5Z" fill="#00DEDE"/>
<path d="M820.234 737.167C818.31 740.5 813.498 740.5 811.574 737.167L802.914 722.167C800.989 718.834 803.395 714.667 807.244 714.667H824.564C828.413 714.667 830.819 718.834 828.894 722.167L820.234 737.167Z" fill="#00DEDE"/>
<path d="M878.234 737.167C876.31 740.5 871.498 740.5 869.574 737.167L860.914 722.167C858.989 718.834 861.395 714.667 865.244 714.667H882.564C886.413 714.667 888.819 718.834 886.894 722.167L878.234 737.167Z" fill="#00DEDE"/>
<path d="M132.67 710.5C134.594 707.167 139.406 707.167 141.33 710.5L149.99 725.5C151.915 728.833 149.509 733 145.66 733H128.34C124.491 733 122.085 728.833 124.01 725.5L132.67 710.5Z" fill="#00DEDE"/>
<path d="M181.938 616.5C184.632 611.833 191.368 611.833 194.062 616.5L225.239 670.5C227.933 675.167 224.566 681 219.177 681H156.823C151.434 681 148.067 675.167 150.761 670.5L181.938 616.5Z" fill="#E7E7E7"/>
<path d="M282.938 616.5C285.632 611.833 292.368 611.833 295.062 616.5L326.239 670.5C328.933 675.167 325.566 681 320.177 681H257.823C252.434 681 249.067 675.167 251.761 670.5L282.938 616.5Z" fill="#E7E7E7"/>
<path d="M295.062 756.5C292.368 761.167 285.632 761.167 282.938 756.5L251.761 702.5C249.067 697.833 252.434 692 257.823 692H320.177C325.566 692 328.933 697.833 326.239 702.5L295.062 756.5Z" fill="#E7E7E7"/>
<path d="M194.062 756.5C191.368 761.167 184.632 761.167 181.938 756.5L150.761 702.5C148.067 697.833 151.434 692 156.823 692H219.177C224.566 692 227.933 697.833 225.239 702.5L194.062 756.5Z" fill="#E7E7E7"/>
<path d="M232.938 711.5C235.632 706.833 242.368 706.833 245.062 711.5L276.239 765.5C278.933 770.167 275.566 776 270.177 776H207.823C202.434 776 199.067 770.167 201.761 765.5L232.938 711.5Z" fill="#E7E7E7"/>
<path d="M244.062 663.5C241.368 668.167 234.632 668.167 231.938 663.5L200.761 609.5C198.067 604.833 201.434 599 206.823 599H269.177C274.566 599 277.933 604.833 275.239 609.5L244.062 663.5Z" fill="#E7E7E7"/>
<path d="M183.67 623.5C185.594 620.167 190.406 620.167 192.33 623.5L218.311 668.5C220.235 671.833 217.83 676 213.981 676H162.019C158.17 676 155.765 671.833 157.689 668.5L183.67 623.5Z" fill="#00DEDE"/>
<path d="M284.67 623.5C286.594 620.167 291.406 620.167 293.33 623.5L319.311 668.5C321.235 671.833 318.83 676 314.981 676H263.019C259.17 676 256.765 671.833 258.689 668.5L284.67 623.5Z" fill="#00DEDE"/>
<path d="M293.33 749.5C291.406 752.833 286.594 752.833 284.67 749.5L258.689 704.5C256.765 701.167 259.17 697 263.019 697H314.981C318.83 697 321.235 701.167 319.311 704.5L293.33 749.5Z" fill="#00DEDE"/>
<path d="M192.33 749.5C190.406 752.833 185.594 752.833 183.67 749.5L157.689 704.5C155.765 701.167 158.17 697 162.019 697H213.981C217.83 697 220.235 701.167 218.311 704.5L192.33 749.5Z" fill="#00DEDE"/>
<path d="M234.67 718.5C236.594 715.167 241.406 715.167 243.33 718.5L269.311 763.5C271.235 766.833 268.83 771 264.981 771H213.019C209.17 771 206.765 766.833 208.689 763.5L234.67 718.5Z" fill="#00DEDE"/>
<path d="M242.33 656.5C240.406 659.833 235.594 659.833 233.67 656.5L207.689 611.5C205.765 608.167 208.17 604 212.019 604H263.981C267.83 604 270.235 608.167 268.311 611.5L242.33 656.5Z" fill="#00DEDE"/>
</svg>
